<?xml version="1.0" encoding="UTF-8" ?>
<svg viewBox="0 0 197 197" xmlns="http://www.w3.org/2000/svg">
    <path fill="currentColor" d="m98.3822 0c-26.7167 0-30.0696.1167-40.5629.5939-10.4727.4792-17.6212 2.136-23.8762 4.567-6.4701 2.5107-11.9586 5.8693-17.4265 11.3352-5.472 5.464-8.8332 10.9483-11.354 17.4116-2.4389 6.2524-4.099 13.3976-4.5703 23.8585-.4693 10.4854-.5923 13.8379-.5923 40.5348 0 26.697.1189 30.037.5943 40.522.4817 10.465 2.1397 17.609 4.5703 23.859 2.5147 6.465 5.8758 11.95 11.3458 17.414 5.466 5.468 10.9544 8.834 17.4204 11.345 6.259 2.431 13.4097 4.088 23.8803 4.567 10.4933.477 13.8441.594 40.5588.594 26.7191 0 30.0611-.117 40.5551-.594 10.472-.479 17.629-2.136 23.888-4.567 6.468-2.511 11.948-5.877 17.414-11.345 5.472-5.464 8.834-10.949 11.354-17.412 2.419-6.252 4.079-13.398 4.571-23.858.471-10.486.594-13.828.594-40.525s-.123-30.0473-.594-40.5328c-.492-10.465-2.152-17.6081-4.571-23.8584-2.52-6.4654-5.882-11.9498-11.354-17.4137-5.472-5.468-10.944-8.8266-17.42-11.3353-6.271-2.4309-13.424-4.0877-23.897-4.5669-10.493-.4772-13.834-.5939-40.5585-.5939zm-8.825 17.7147c2.6193-.0041 5.5418 0 8.825 0 26.2658 0 29.3788.0942 39.7508.5652 9.592.4383 14.798 2.0397 18.265 3.3852 4.591 1.7817 7.864 3.9116 11.305 7.3521 3.443 3.4406 5.575 6.7173 7.362 11.3046 1.346 3.461 2.951 8.6628 3.387 18.2472.472 10.3625.574 13.4754.574 39.7095 0 26.2345-.102 29.3475-.574 39.7095-.438 9.584-2.041 14.786-3.387 18.247-1.783 4.587-3.919 7.854-7.362 11.292-3.443 3.441-6.712 5.571-11.305 7.353-3.463 1.351-8.673 2.949-18.265 3.387-10.37.471-13.485.573-39.7508.573-26.2679 0-29.381-.102-39.7513-.573-9.5914-.442-14.797-2.044-18.2668-3.389-4.5908-1.782-7.87-3.912-11.313-7.353-3.4431-3.44-5.5745-6.709-7.3617-11.298-1.3465-3.461-2.9512-8.663-3.3877-18.247-.4714-10.363-.5657-13.476-.5657-39.7261 0-26.2504.0943-29.347.5657-39.7095.4386-9.5844 2.0412-14.7861 3.3877-18.2512 1.783-4.5874 3.9186-7.8641 7.3617-11.3046 3.443-3.4406 6.7222-5.5704 11.313-7.3562 3.4677-1.3517 8.6754-2.949 18.2668-3.3894 9.075-.4096 12.5919-.5324 30.9264-.553zm61.3368 16.322c-6.518 0-11.805 5.2776-11.805 11.792 0 6.5125 5.287 11.7962 11.805 11.7962 6.517 0 11.804-5.2837 11.804-11.7962 0-6.5124-5.287-11.796-11.805-11.796zm-52.5118 13.7826c-27.8993 0-50.5191 22.6031-50.5191 50.4817 0 27.879 22.6198 50.471 50.5191 50.471 27.8998 0 50.5108-22.592 50.5108-50.471 0-27.8786-22.614-50.4817-50.5128-50.4817zm0 17.7147c18.1088 0 32.7918 14.6694 32.7918 32.767 0 18.096-14.683 32.767-32.7918 32.767-18.111 0-32.7913-14.671-32.7913-32.767 0-18.0976 14.6803-32.767 32.7913-32.767z" />
</svg>
