<?xml version="1.0" encoding="UTF-8"?>
<svg viewBox="0 0 71.4121 50" xmlns="http://www.w3.org/2000/svg">
	<path d="M35.7054 0C35.7054 0 13.354 0.000114901 7.76569 1.47071C4.76566 2.29425 2.29425 4.76543 1.47071 7.82428C0.000114901 13.4126 0 25.0002 0 25.0002C0 25.0002 0.000114901 36.6467 1.47071 42.1761C2.29425 45.235 4.70684 47.6476 7.76569 48.4711C13.4128 50.0005 35.7054 50.0004 35.7054 50.0004C35.7054 50.0004 58.0587 50.0003 63.647 48.5297C66.7058 47.7062 69.1184 45.2936 69.942 42.2347C71.4126 36.6464 71.4127 25.0588 71.4127 25.0588C71.4127 25.0588 71.4714 13.4126 69.942 7.82428C69.1184 4.76543 66.7058 2.35285 63.647 1.52931C58.0587-0.000114881 35.7054 0 35.7054 0ZM28.5881 14.295L47.1762 25.0002L28.5881 35.7054L28.5881 14.295Z" fill="currentColor" />
</svg>
