<?xml version="1.0" encoding="UTF-8" standalone="no"?>
<svg height="100%" stroke-miterlimit="10"
     style="fill-rule:nonzero;clip-rule:evenodd;stroke-linecap:round;stroke-linejoin:round;" version="1.1"
     viewBox="0 0 1024 1024" width="100%" xml:space="preserve" xmlns="http://www.w3.org/2000/svg"
>
<defs/>
    <clipPath id="ArtboardFrame">
<rect height="1024" width="1024" x="0" y="0"/>
</clipPath>
    <g>
<path d="M0 512C0 229.23 229.23-1.42109e-14 512-1.42109e-14C794.77-1.42109e-14 1024 229.23 1024 512C1024 794.77 794.77 1024 512 1024C229.23 1024 0 794.77 0 512Z"
      fill="#ffffff" fill-rule="nonzero" opacity="1" stroke="#ffffff" stroke-linecap="butt" stroke-linejoin="round"
      stroke-width="0.1"/>
        <path d="M512 9.59233e-14C736.932 9.59233e-14 928.213 145.257 996.673 347.18C591.962 370.195 292.24 438.076 274.116 562.915C256.57 681.711 476.331 779.791 489.272 850.263C501.931 918.15 415.64 981.427 349.771 984.879C332.513 985.744 315.828 983.158 300.295 977.981C123.108 897.44 0 719.1 0 511.713C0 228.963 229.249 9.59233e-14 512 9.59233e-14"
              fill="#42ac49" fill-rule="nonzero" opacity="1" stroke="none"/>
        <path d="M1003.29 368.18C1016.81 413.63 1024 461.948 1024 511.716C1024 617.279 991.783 715.359 937.135 797.047C936.269 790.155 934.836 783.24 933.396 776.343C900.606 640.283 558.024 594.838 553.994 507.399C549.969 413.338 900.313 375.943 1003.29 368.18"
              fill="#0c497b" fill-rule="nonzero" opacity="1" stroke="none"/>
</g>
</svg>
